<svg width="120" height="40" viewBox="0 0 120 40" fill="none" xmlns="http://www.w3.org/2000/svg">
<g filter="url(#filter0_i_211_378)">
<path d="M112 0H8C3.58172 0 0 3.58172 0 8V32C0 36.4183 3.58172 40 8 40H112C116.418 40 120 36.4183 120 32V8C120 3.58172 116.418 0 112 0Z" fill="url(#paint0_linear_211_378)"/>
<path d="M112 0.5H8C3.85786 0.5 0.5 3.85786 0.5 8V32C0.5 36.1421 3.85786 39.5 8 39.5H112C116.142 39.5 119.5 36.1421 119.5 32V8C119.5 3.85786 116.142 0.5 112 0.5Z" stroke="url(#paint1_linear_211_378)"/>
</g>
<defs>
<filter id="filter0_i_211_378" x="0" y="0" width="122" height="42" filterUnits="userSpaceOnUse" color-interpolation-filters="sRGB">
<feFlood flood-opacity="0" result="BackgroundImageFix"/>
<feBlend mode="normal" in="SourceGraphic" in2="BackgroundImageFix" result="shape"/>
<feColorMatrix in="SourceAlpha" type="matrix" values="0 0 0 0 0 0 0 0 0 0 0 0 0 0 0 0 0 0 127 0" result="hardAlpha"/>
<feOffset dx="2" dy="2"/>
<feGaussianBlur stdDeviation="4"/>
<feComposite in2="hardAlpha" operator="arithmetic" k2="-1" k3="1"/>
<feColorMatrix type="matrix" values="0 0 0 0 1 0 0 0 0 0.931405 0 0 0 0 0.798893 0 0 0 0.8 0"/>
<feBlend mode="normal" in2="shape" result="effect1_innerShadow_211_378"/>
</filter>
<linearGradient id="paint0_linear_211_378" x1="-8.28789e-07" y1="4.583" x2="98.603" y2="67.117" gradientUnits="userSpaceOnUse">
<stop stop-color="#FFBF04"/>
<stop offset="0.5" stop-color="#FFE88A"/>
<stop offset="1" stop-color="#FFBF04"/>
</linearGradient>
<linearGradient id="paint1_linear_211_378" x1="-5.52503e-08" y1="5" x2="102.741" y2="68.738" gradientUnits="userSpaceOnUse">
<stop stop-color="#FFE6A3"/>
<stop offset="1" stop-color="#FFD560"/>
</linearGradient>
</defs>
</svg>
