<svg width="120" height="48" viewBox="0 0 120 48" fill="none" xmlns="http://www.w3.org/2000/svg">
<g filter="url(#filter0_i_211_558)">
<path d="M112 0H8C3.58172 0 0 3.58172 0 8V40C0 44.4183 3.58172 48 8 48H112C116.418 48 120 44.4183 120 40V8C120 3.58172 116.418 0 112 0Z" fill="url(#paint0_linear_211_558)"/>
<path d="M112 0.5H8C3.85786 0.5 0.5 3.85786 0.5 8V40C0.5 44.1421 3.85786 47.5 8 47.5H112C116.142 47.5 119.5 44.1421 119.5 40V8C119.5 3.85786 116.142 0.5 112 0.5Z" stroke="url(#paint1_linear_211_558)"/>
</g>
<defs>
<filter id="filter0_i_211_558" x="0" y="0" width="122" height="50" filterUnits="userSpaceOnUse" color-interpolation-filters="sRGB">
<feFlood flood-opacity="0" result="BackgroundImageFix"/>
<feBlend mode="normal" in="SourceGraphic" in2="BackgroundImageFix" result="shape"/>
<feColorMatrix in="SourceAlpha" type="matrix" values="0 0 0 0 0 0 0 0 0 0 0 0 0 0 0 0 0 0 127 0" result="hardAlpha"/>
<feOffset dx="2" dy="2"/>
<feGaussianBlur stdDeviation="4"/>
<feComposite in2="hardAlpha" operator="arithmetic" k2="-1" k3="1"/>
<feColorMatrix type="matrix" values="0 0 0 0 1 0 0 0 0 0.931405 0 0 0 0 0.798893 0 0 0 0.8 0"/>
<feBlend mode="normal" in2="shape" result="effect1_innerShadow_211_558"/>
</filter>
<linearGradient id="paint0_linear_211_558" x1="-3" y1="1.2" x2="115.8" y2="64.226" gradientUnits="userSpaceOnUse">
<stop stop-color="#FFCF3B"/>
<stop offset="0.51364" stop-color="#FFE889"/>
<stop offset="1" stop-color="#FFD043"/>
</linearGradient>
<linearGradient id="paint1_linear_211_558" x1="-2.64257e-07" y1="6" x2="112.28" y2="64.044" gradientUnits="userSpaceOnUse">
<stop stop-color="#FFE6A3"/>
<stop offset="1" stop-color="#FFD560"/>
</linearGradient>
</defs>
</svg>
