<svg width="1899" height="400" viewBox="0 0 1899 400" fill="none" xmlns="http://www.w3.org/2000/svg">
<path d="M40 42C40 40.8954 40.8954 40 42 40H1857C1858.1 40 1859 40.8954 1859 42V358C1859 359.105 1858.1 360 1857 360H42C40.8955 360 40 359.105 40 358V42Z" fill="#494E64"/>
<rect width="192" height="192" transform="translate(88 88)" fill="#121827"/>
<g clip-path="url(#clip0_20834_21960)">
<path d="M167.683 138H200.213L214.788 173.058L184.49 230.442L153.481 173.941L167.683 138Z" fill="url(#paint0_linear_20834_21960)"/>
<path d="M167.688 138L184.139 172.944L200.218 138H167.688Z" fill="#FFEEA6"/>
<path d="M179.265 230.442L144.227 173.924L161.746 138H144.227L116 165.997L179.265 230.442Z" fill="url(#paint1_linear_20834_21960)"/>
<path d="M144.228 173.924L116 165.997L179.265 230.442L144.228 173.924Z" fill="url(#paint2_linear_20834_21960)"/>
<path d="M189.195 230.442L224.233 173.924L206.714 138H224.233L252.46 165.997L189.195 230.442Z" fill="url(#paint3_linear_20834_21960)"/>
<path d="M200.217 148.296L210.279 173.205L195.316 199.29L203.048 173.499L200.217 148.296Z" fill="#FFEEA6"/>
<path d="M162.733 181.001L181.142 217.121L178.149 196.904L162.733 181.001Z" fill="#FFEEA6"/>
<path d="M132.596 157.057L121.434 167.517L143.628 188.813L130.363 169.511L132.596 157.057Z" fill="#FFEEA6"/>
<path d="M219.127 142.217L224.207 142.02L246.513 163.121L219.127 142.217Z" fill="#FFEEA6"/>
</g>
<rect width="180" height="180" transform="translate(300 88)" fill="#121827"/>
<g clip-path="url(#clip1_20834_21960)">
<path d="M375.043 135.833H404.862L418.222 167.97L390.449 220.572L362.024 168.779L375.043 135.833Z" fill="url(#paint4_linear_20834_21960)"/>
<path d="M375.047 135.833L390.127 167.865L404.866 135.833H375.047Z" fill="#FFEEA6"/>
<path d="M385.659 220.572L353.542 168.764L369.601 135.833H353.542L327.667 161.498L385.659 220.572Z" fill="url(#paint5_linear_20834_21960)"/>
<path d="M353.542 168.764L327.667 161.497L385.66 220.571L353.542 168.764Z" fill="url(#paint6_linear_20834_21960)"/>
<path d="M394.762 220.572L426.88 168.764L410.821 135.833H426.88L452.755 161.498L394.762 220.572Z" fill="url(#paint7_linear_20834_21960)"/>
<path d="M404.866 145.272L414.089 168.104L400.373 192.016L407.461 168.374L404.866 145.272Z" fill="#FFEEA6"/>
<path d="M370.505 175.251L387.38 208.361L384.637 189.828L370.505 175.251Z" fill="#FFEEA6"/>
<path d="M342.879 153.302L332.648 162.891L352.992 182.412L340.833 164.719L342.879 153.302Z" fill="#FFEEA6"/>
<path d="M422.2 139.699L426.856 139.519L447.304 158.861L422.2 139.699Z" fill="#FFEEA6"/>
</g>
<rect width="160" height="160" transform="translate(500 88)" fill="#121827"/>
<g clip-path="url(#clip2_20834_21960)">
<path d="M566.403 129.667H593.511L605.657 158.882L580.408 206.702L554.567 159.617L566.403 129.667Z" fill="url(#paint8_linear_20834_21960)"/>
<path d="M566.406 129.667L580.115 158.786L593.515 129.667H566.406Z" fill="#FFEEA6"/>
<path d="M576.054 206.702L546.856 159.603L561.455 129.667H546.856L523.333 152.998L576.054 206.702Z" fill="url(#paint9_linear_20834_21960)"/>
<path d="M546.857 159.603L523.334 152.997L576.054 206.701L546.857 159.603Z" fill="url(#paint10_linear_20834_21960)"/>
<path d="M584.329 206.702L613.527 159.604L598.928 129.667H613.527L637.05 152.998L584.329 206.702Z" fill="url(#paint11_linear_20834_21960)"/>
<path d="M593.514 138.247L601.899 159.004L589.43 180.742L595.873 159.249L593.514 138.247Z" fill="#FFEEA6"/>
<path d="M562.278 165.501L577.618 195.601L575.124 178.753L562.278 165.501Z" fill="#FFEEA6"/>
<path d="M537.163 145.547L527.862 154.264L546.357 172.011L535.303 155.926L537.163 145.547Z" fill="#FFEEA6"/>
<path d="M609.273 133.18L613.505 133.017L632.094 150.601L609.273 133.18Z" fill="#FFEEA6"/>
</g>
<rect width="152" height="152" transform="translate(680 88)" fill="#121827"/>
<g clip-path="url(#clip3_20834_21960)">
<path d="M743.309 128.222H768.61L779.946 155.49L756.381 200.122L732.263 156.176L743.309 128.222Z" fill="url(#paint12_linear_20834_21960)"/>
<path d="M743.312 128.222L756.108 155.401L768.614 128.222H743.312Z" fill="#FFEEA6"/>
<path d="M752.317 200.122L725.066 156.163L738.691 128.222H725.066L703.111 149.998L752.317 200.122Z" fill="url(#paint13_linear_20834_21960)"/>
<path d="M725.066 156.163L703.112 149.998L752.318 200.121L725.066 156.163Z" fill="url(#paint14_linear_20834_21960)"/>
<path d="M760.041 200.122L787.292 156.163L773.666 128.222H787.292L809.247 149.998L760.041 200.122Z" fill="url(#paint15_linear_20834_21960)"/>
<path d="M768.613 136.231L776.439 155.604L764.801 175.892L770.815 155.833L768.613 136.231Z" fill="#FFEEA6"/>
<path d="M739.459 161.667L753.777 189.761L751.449 174.036L739.459 161.667Z" fill="#FFEEA6"/>
<path d="M716.019 143.044L707.338 151.18L724.599 167.744L714.283 152.731L716.019 143.044Z" fill="#FFEEA6"/>
<path d="M783.321 131.502L787.272 131.349L804.622 147.76L783.321 131.502Z" fill="#FFEEA6"/>
</g>
<rect width="144" height="144" transform="translate(852 88)" fill="#121827"/>
<g clip-path="url(#clip4_20834_21960)">
<path d="M912.216 126.778H935.71L946.236 152.097L924.354 193.541L901.958 152.735L912.216 126.778Z" fill="url(#paint16_linear_20834_21960)"/>
<path d="M912.219 126.778L924.1 152.015L935.713 126.778H912.219Z" fill="#FFEEA6"/>
<path d="M920.58 193.541L895.275 152.723L907.928 126.778H895.275L874.889 146.998L920.58 193.541Z" fill="url(#paint17_linear_20834_21960)"/>
<path d="M895.276 152.723L874.889 146.998L920.581 193.541L895.276 152.723Z" fill="url(#paint18_linear_20834_21960)"/>
<path d="M927.752 193.541L953.057 152.723L940.404 126.778H953.057L973.443 146.998L927.752 193.541Z" fill="url(#paint19_linear_20834_21960)"/>
<path d="M935.712 134.214L942.979 152.203L932.172 171.043L937.757 152.416L935.712 134.214Z" fill="#FFEEA6"/>
<path d="M908.641 157.834L921.935 183.921L919.774 169.319L908.641 157.834Z" fill="#FFEEA6"/>
<path d="M886.875 140.541L878.813 148.096L894.842 163.476L885.262 149.536L886.875 140.541Z" fill="#FFEEA6"/>
<path d="M949.37 129.823L953.038 129.681L969.149 144.92L949.37 129.823Z" fill="#FFEEA6"/>
</g>
<rect width="120" height="120" transform="translate(1016 88)" fill="#121827"/>
<g clip-path="url(#clip5_20834_21960)">
<path d="M1066.03 119.889H1085.91L1094.81 141.313L1076.3 176.381L1057.35 141.853L1066.03 119.889Z" fill="url(#paint20_linear_20834_21960)"/>
<path d="M1066.03 119.889L1076.08 141.243L1085.91 119.889H1066.03Z" fill="#FFEEA6"/>
<path d="M1073.11 176.381L1051.69 141.843L1062.4 119.889H1051.69L1034.44 136.998L1073.11 176.381Z" fill="url(#paint21_linear_20834_21960)"/>
<path d="M1051.69 141.842L1034.44 136.998L1073.11 176.381L1051.69 141.842Z" fill="url(#paint22_linear_20834_21960)"/>
<path d="M1079.17 176.381L1100.59 141.843L1089.88 119.889H1100.59L1117.84 136.998L1079.17 176.381Z" fill="url(#paint23_linear_20834_21960)"/>
<path d="M1085.91 126.181L1092.06 141.403L1082.92 157.344L1087.64 141.583L1085.91 126.181Z" fill="#FFEEA6"/>
<path d="M1063 146.167L1074.25 168.241L1072.42 155.886L1063 146.167Z" fill="#FFEEA6"/>
<path d="M1044.59 131.535L1037.77 137.927L1051.33 150.942L1043.22 139.146L1044.59 131.535Z" fill="#FFEEA6"/>
<path d="M1097.47 122.466L1100.57 122.346L1114.2 135.24L1097.47 122.466Z" fill="#FFEEA6"/>
</g>
<rect width="114" height="114" transform="translate(1156 88)" fill="#121827"/>
<g clip-path="url(#clip6_20834_21960)">
<path d="M1203.71 118.806H1222.23L1230.53 138.769L1213.28 171.446L1195.62 139.272L1203.71 118.806Z" fill="url(#paint24_linear_20834_21960)"/>
<path d="M1203.71 118.806L1213.08 138.704L1222.24 118.806H1203.71Z" fill="#FFEEA6"/>
<path d="M1210.3 171.446L1190.35 139.262L1200.33 118.806H1190.35L1174.28 134.748L1210.3 171.446Z" fill="url(#paint25_linear_20834_21960)"/>
<path d="M1190.35 139.262L1174.28 134.748L1210.3 171.446L1190.35 139.262Z" fill="url(#paint26_linear_20834_21960)"/>
<path d="M1215.96 171.446L1235.91 139.262L1225.93 118.806H1235.91L1251.98 134.749L1215.96 171.446Z" fill="url(#paint27_linear_20834_21960)"/>
<path d="M1222.23 124.669L1227.96 138.853L1219.44 153.707L1223.85 139.02L1222.23 124.669Z" fill="#FFEEA6"/>
<path d="M1200.89 143.292L1211.37 163.861L1209.67 152.348L1200.89 143.292Z" fill="#FFEEA6"/>
<path d="M1183.73 129.657L1177.37 135.614L1190.01 147.741L1182.46 136.749L1183.73 129.657Z" fill="#FFEEA6"/>
<path d="M1233 121.207L1235.9 121.095L1248.6 133.11L1233 121.207Z" fill="#FFEEA6"/>
</g>
<rect width="96" height="96" transform="translate(1290 88)" fill="#121827"/>
<g clip-path="url(#clip7_20834_21960)">
<path d="M1329.84 113H1346.11L1353.39 130.529L1338.25 159.221L1322.74 130.97L1329.84 113Z" fill="url(#paint28_linear_20834_21960)"/>
<path d="M1329.84 113L1338.07 130.472L1346.11 113H1329.84Z" fill="#FFEEA6"/>
<path d="M1335.63 159.221L1318.11 130.962L1326.87 113H1318.11L1304 126.999L1335.63 159.221Z" fill="url(#paint29_linear_20834_21960)"/>
<path d="M1318.11 130.962L1304 126.999L1335.63 159.221L1318.11 130.962Z" fill="url(#paint30_linear_20834_21960)"/>
<path d="M1340.6 159.221L1358.12 130.962L1349.36 113H1358.12L1372.23 126.999L1340.6 159.221Z" fill="url(#paint31_linear_20834_21960)"/>
<path d="M1346.11 118.148L1351.14 130.602L1343.66 143.645L1347.52 130.75L1346.11 118.148Z" fill="#FFEEA6"/>
<path d="M1327.37 134.5L1336.57 152.561L1335.07 142.452L1327.37 134.5Z" fill="#FFEEA6"/>
<path d="M1312.3 122.528L1306.72 127.759L1317.81 138.407L1311.18 128.756L1312.3 122.528Z" fill="#FFEEA6"/>
<path d="M1355.56 115.108L1358.1 115.01L1369.26 125.56L1355.56 115.108Z" fill="#FFEEA6"/>
</g>
<rect width="76" height="76" transform="translate(1406 88)" fill="#121827"/>
<g clip-path="url(#clip8_20834_21960)">
<path d="M1437.2 106.833H1450.76L1456.83 121.441L1444.2 145.351L1431.28 121.809L1437.2 106.833Z" fill="url(#paint32_linear_20834_21960)"/>
<path d="M1437.2 106.833L1444.06 121.393L1450.76 106.833H1437.2Z" fill="#FFEEA6"/>
<path d="M1442.03 145.351L1427.43 121.802L1434.73 106.833H1427.43L1415.67 118.499L1442.03 145.351Z" fill="url(#paint33_linear_20834_21960)"/>
<path d="M1427.43 121.802L1415.67 118.499L1442.03 145.351L1427.43 121.802Z" fill="url(#paint34_linear_20834_21960)"/>
<path d="M1446.16 145.351L1460.76 121.802L1453.46 106.833H1460.76L1472.53 118.499L1446.16 145.351Z" fill="url(#paint35_linear_20834_21960)"/>
<path d="M1450.76 111.124L1454.95 121.502L1448.72 132.371L1451.94 121.625L1450.76 111.124Z" fill="#FFEEA6"/>
<path d="M1435.14 124.75L1442.81 139.801L1441.56 131.377L1435.14 124.75Z" fill="#FFEEA6"/>
<path d="M1422.58 114.774L1417.93 119.132L1427.18 128.006L1421.65 119.963L1422.58 114.774Z" fill="#FFEEA6"/>
<path d="M1458.64 108.59L1460.75 108.508L1470.05 117.3L1458.64 108.59Z" fill="#FFEEA6"/>
</g>
<rect width="72" height="72" transform="translate(1502 88)" fill="#121827"/>
<g clip-path="url(#clip9_20834_21960)">
<path d="M1531.65 106.111H1544.31L1549.97 119.745L1538.19 142.061L1526.13 120.088L1531.65 106.111Z" fill="url(#paint36_linear_20834_21960)"/>
<path d="M1531.66 106.111L1538.05 119.7L1544.31 106.111H1531.66Z" fill="#FFEEA6"/>
<path d="M1536.16 142.061L1522.53 120.082L1529.35 106.111H1522.53L1511.56 116.999L1536.16 142.061Z" fill="url(#paint37_linear_20834_21960)"/>
<path d="M1522.53 120.082L1511.56 116.999L1536.16 142.061L1522.53 120.082Z" fill="url(#paint38_linear_20834_21960)"/>
<path d="M1540.02 142.061L1553.65 120.082L1546.83 106.111H1553.65L1564.62 116.999L1540.02 142.061Z" fill="url(#paint39_linear_20834_21960)"/>
<path d="M1544.31 110.115L1548.22 119.802L1542.4 129.946L1545.41 119.916L1544.31 110.115Z" fill="#FFEEA6"/>
<path d="M1529.73 122.834L1536.89 136.88L1535.72 129.018L1529.73 122.834Z" fill="#FFEEA6"/>
<path d="M1518.01 113.522L1513.67 117.59L1522.3 125.872L1517.14 118.365L1518.01 113.522Z" fill="#FFEEA6"/>
<path d="M1551.66 107.751L1553.64 107.675L1562.31 115.88L1551.66 107.751Z" fill="#FFEEA6"/>
</g>
<rect width="60" height="60" transform="translate(1594 88)" fill="#121827"/>
<g clip-path="url(#clip10_20834_21960)">
<path d="M1618.56 102.667H1629.4L1634.26 114.353L1624.16 133.481L1613.83 114.647L1618.56 102.667Z" fill="url(#paint40_linear_20834_21960)"/>
<path d="M1618.56 102.667L1624.05 114.315L1629.41 102.667H1618.56Z" fill="#FFEEA6"/>
<path d="M1622.42 133.481L1610.74 114.641L1616.58 102.667H1610.74L1601.33 111.999L1622.42 133.481Z" fill="url(#paint41_linear_20834_21960)"/>
<path d="M1610.74 114.641L1601.33 111.999L1622.42 133.481L1610.74 114.641Z" fill="url(#paint42_linear_20834_21960)"/>
<path d="M1625.73 133.481L1637.41 114.641L1631.57 102.667H1637.41L1646.82 111.999L1625.73 133.481Z" fill="url(#paint43_linear_20834_21960)"/>
<path d="M1629.41 106.099L1632.76 114.402L1627.77 123.097L1630.35 114.5L1629.41 106.099Z" fill="#FFEEA6"/>
<path d="M1616.91 117L1623.05 129.04L1622.05 122.301L1616.91 117Z" fill="#FFEEA6"/>
<path d="M1606.87 109.019L1603.14 112.506L1610.54 119.604L1606.12 113.17L1606.87 109.019Z" fill="#FFEEA6"/>
<path d="M1635.71 104.072L1637.4 104.007L1644.84 111.04L1635.71 104.072Z" fill="#FFEEA6"/>
</g>
<rect width="57" height="57" transform="translate(1674 88)" fill="#121827"/>
<g clip-path="url(#clip11_20834_21960)">
<path d="M1697.4 102.125H1707.57L1712.12 113.081L1702.65 131.013L1692.96 113.356L1697.4 102.125Z" fill="url(#paint44_linear_20834_21960)"/>
<path d="M1697.4 102.125L1702.54 113.045L1707.57 102.125H1697.4Z" fill="#FFEEA6"/>
<path d="M1701.02 131.013L1690.07 113.351L1695.55 102.125H1690.07L1681.25 110.874L1701.02 131.013Z" fill="url(#paint45_linear_20834_21960)"/>
<path d="M1690.07 113.351L1681.25 110.874L1701.02 131.013L1690.07 113.351Z" fill="url(#paint46_linear_20834_21960)"/>
<path d="M1704.12 131.013L1715.07 113.351L1709.6 102.125H1715.07L1723.89 110.874L1704.12 131.013Z" fill="url(#paint47_linear_20834_21960)"/>
<path d="M1707.57 105.343L1710.71 113.127L1706.04 121.278L1708.45 113.218L1707.57 105.343Z" fill="#FFEEA6"/>
<path d="M1695.85 115.563L1701.61 126.85L1700.67 120.532L1695.85 115.563Z" fill="#FFEEA6"/>
<path d="M1686.44 108.08L1682.95 111.349L1689.88 118.004L1685.74 111.972L1686.44 108.08Z" fill="#FFEEA6"/>
<path d="M1713.48 103.443L1715.06 103.381L1722.04 109.975L1713.48 103.443Z" fill="#FFEEA6"/>
</g>
<rect width="32" height="32" transform="translate(1751 88)" fill="#121827"/>
<g clip-path="url(#clip12_20834_21960)">
<path d="M1764.28 96.3334H1769.7L1772.13 102.176L1767.08 111.74L1761.91 102.323L1764.28 96.3334Z" fill="url(#paint48_linear_20834_21960)"/>
<path d="M1764.28 96.3334L1767.02 102.157L1769.7 96.3334H1764.28Z" fill="#FFEEA6"/>
<path d="M1766.21 111.74L1760.37 102.321L1763.29 96.3333H1760.37L1755.67 101L1766.21 111.74Z" fill="url(#paint49_linear_20834_21960)"/>
<path d="M1760.37 102.321L1755.67 101L1766.21 111.74L1760.37 102.321Z" fill="url(#paint50_linear_20834_21960)"/>
<path d="M1767.87 111.74L1773.71 102.321L1770.79 96.3334H1773.71L1778.41 101L1767.87 111.74Z" fill="url(#paint51_linear_20834_21960)"/>
<path d="M1769.7 98.0494L1771.38 102.201L1768.89 106.548L1770.17 102.25L1769.7 98.0494Z" fill="#FFEEA6"/>
<path d="M1763.46 103.5L1766.52 109.52L1766.02 106.151L1763.46 103.5Z" fill="#FFEEA6"/>
<path d="M1758.43 99.5095L1756.57 101.253L1760.27 104.802L1758.06 101.585L1758.43 99.5095Z" fill="#FFEEA6"/>
<path d="M1772.85 97.0361L1773.7 97.0034L1777.42 100.52L1772.85 97.0361Z" fill="#FFEEA6"/>
</g>
<rect width="16" height="16" transform="translate(1803 88)" fill="#121827"/>
<g clip-path="url(#clip13_20834_21960)">
<path d="M1809.64 92.1667H1812.35L1813.57 95.0882L1811.04 99.8702L1808.46 95.1618L1809.64 92.1667Z" fill="url(#paint52_linear_20834_21960)"/>
<path d="M1809.64 92.1667L1811.01 95.0787L1812.35 92.1667H1809.64Z" fill="#FFEEA6"/>
<path d="M1810.61 99.8702L1807.69 95.1604L1809.15 92.1667H1807.69L1805.33 94.4998L1810.61 99.8702Z" fill="url(#paint53_linear_20834_21960)"/>
<path d="M1807.69 95.1603L1805.33 94.4998L1810.61 99.8701L1807.69 95.1603Z" fill="url(#paint54_linear_20834_21960)"/>
<path d="M1811.43 99.8702L1814.35 95.1604L1812.89 92.1667H1814.35L1816.7 94.4999L1811.43 99.8702Z" fill="url(#paint55_linear_20834_21960)"/>
<path d="M1812.35 93.0247L1813.19 95.1004L1811.94 97.2742L1812.59 95.1249L1812.35 93.0247Z" fill="#FFEEA6"/>
<path d="M1809.23 95.7501L1810.76 98.7602L1810.51 97.0754L1809.23 95.7501Z" fill="#FFEEA6"/>
<path d="M1806.72 93.7548L1805.79 94.6264L1807.64 96.4011L1806.53 94.7926L1806.72 93.7548Z" fill="#FFEEA6"/>
<path d="M1813.93 92.5181L1814.35 92.5017L1816.21 94.2601L1813.93 92.5181Z" fill="#FFEEA6"/>
</g>
<path d="M155.88 309.909H158.277L162.444 320.085H162.598L166.765 309.909H169.162V323H167.283V313.527H167.162L163.301 322.981H161.741L157.88 313.521H157.759V323H155.88V309.909ZM174.738 323.217C174.116 323.217 173.553 323.102 173.05 322.872C172.547 322.638 172.149 322.299 171.855 321.856C171.565 321.413 171.42 320.869 171.42 320.226C171.42 319.672 171.527 319.216 171.74 318.858C171.953 318.5 172.241 318.217 172.603 318.008C172.965 317.799 173.37 317.641 173.817 317.535C174.265 317.428 174.721 317.347 175.185 317.292C175.773 317.224 176.251 317.168 176.617 317.126C176.983 317.079 177.25 317.004 177.416 316.902C177.582 316.8 177.665 316.634 177.665 316.403V316.359C177.665 315.8 177.508 315.368 177.192 315.061C176.881 314.754 176.417 314.601 175.799 314.601C175.155 314.601 174.648 314.744 174.278 315.029C173.911 315.31 173.657 315.624 173.517 315.969L171.721 315.56C171.934 314.963 172.245 314.482 172.654 314.115C173.067 313.744 173.542 313.476 174.079 313.31C174.616 313.139 175.181 313.054 175.773 313.054C176.165 313.054 176.581 313.101 177.02 313.195C177.463 313.284 177.876 313.45 178.26 313.693C178.648 313.936 178.965 314.283 179.212 314.735C179.459 315.183 179.583 315.764 179.583 316.48V323H177.716V321.658H177.64C177.516 321.905 177.331 322.148 177.084 322.386C176.836 322.625 176.519 322.823 176.131 322.981C175.743 323.138 175.279 323.217 174.738 323.217ZM175.153 321.683C175.682 321.683 176.133 321.579 176.508 321.37C176.888 321.161 177.175 320.888 177.371 320.552C177.572 320.211 177.672 319.847 177.672 319.459V318.193C177.604 318.261 177.471 318.325 177.275 318.385C177.084 318.44 176.864 318.489 176.617 318.532C176.37 318.57 176.129 318.607 175.895 318.641C175.66 318.67 175.464 318.696 175.307 318.717C174.936 318.764 174.597 318.843 174.29 318.954C173.988 319.065 173.745 319.224 173.562 319.433C173.383 319.638 173.293 319.911 173.293 320.251C173.293 320.724 173.468 321.082 173.817 321.325C174.167 321.564 174.612 321.683 175.153 321.683ZM189.486 315.579L187.754 315.886C187.681 315.664 187.566 315.453 187.408 315.253C187.255 315.053 187.046 314.888 186.782 314.761C186.518 314.633 186.188 314.569 185.791 314.569C185.25 314.569 184.798 314.69 184.436 314.933C184.074 315.172 183.893 315.481 183.893 315.86C183.893 316.188 184.014 316.452 184.257 316.653C184.5 316.853 184.892 317.017 185.433 317.145L186.993 317.503C187.896 317.712 188.57 318.033 189.013 318.468C189.456 318.903 189.678 319.467 189.678 320.162C189.678 320.75 189.507 321.274 189.166 321.734C188.83 322.19 188.359 322.548 187.754 322.808C187.153 323.068 186.456 323.198 185.663 323.198C184.564 323.198 183.667 322.964 182.972 322.495C182.278 322.022 181.852 321.351 181.694 320.482L183.541 320.2C183.656 320.682 183.893 321.046 184.251 321.293C184.609 321.536 185.075 321.658 185.651 321.658C186.277 321.658 186.778 321.528 187.153 321.268C187.528 321.004 187.715 320.682 187.715 320.303C187.715 319.996 187.6 319.738 187.37 319.529C187.144 319.32 186.797 319.163 186.328 319.056L184.666 318.692C183.75 318.483 183.072 318.151 182.634 317.695C182.199 317.239 181.982 316.661 181.982 315.962C181.982 315.383 182.143 314.876 182.467 314.441C182.791 314.006 183.239 313.668 183.81 313.425C184.381 313.178 185.035 313.054 185.772 313.054C186.833 313.054 187.668 313.284 188.278 313.744C188.887 314.2 189.29 314.812 189.486 315.579ZM196.362 313.182V314.716H190.999V313.182H196.362ZM192.437 310.83H194.349V320.117C194.349 320.488 194.404 320.767 194.515 320.955C194.626 321.138 194.768 321.263 194.943 321.332C195.122 321.396 195.316 321.428 195.525 321.428C195.678 321.428 195.812 321.417 195.927 321.396C196.042 321.374 196.132 321.357 196.196 321.344L196.541 322.923C196.43 322.966 196.273 323.009 196.068 323.051C195.863 323.098 195.608 323.124 195.301 323.128C194.798 323.136 194.329 323.047 193.895 322.859C193.46 322.672 193.108 322.382 192.84 321.99C192.572 321.598 192.437 321.106 192.437 320.513V310.83ZM202.602 323.198C201.635 323.198 200.802 322.991 200.103 322.578C199.408 322.161 198.871 321.575 198.492 320.82C198.117 320.062 197.93 319.173 197.93 318.155C197.93 317.149 198.117 316.263 198.492 315.496C198.871 314.729 199.4 314.13 200.077 313.7C200.759 313.269 201.556 313.054 202.468 313.054C203.022 313.054 203.559 313.146 204.079 313.329C204.599 313.512 205.065 313.8 205.479 314.192C205.892 314.584 206.218 315.093 206.457 315.719C206.695 316.342 206.815 317.098 206.815 317.989V318.666H199.01V317.234H204.942C204.942 316.732 204.839 316.286 204.635 315.898C204.43 315.506 204.143 315.197 203.772 314.972C203.406 314.746 202.975 314.633 202.481 314.633C201.944 314.633 201.475 314.765 201.075 315.029C200.678 315.289 200.371 315.63 200.154 316.052C199.941 316.469 199.835 316.923 199.835 317.413V318.532C199.835 319.188 199.95 319.746 200.18 320.207C200.414 320.667 200.74 321.018 201.158 321.261C201.575 321.5 202.063 321.619 202.621 321.619C202.984 321.619 203.314 321.568 203.612 321.466C203.911 321.359 204.168 321.202 204.386 320.993C204.603 320.784 204.769 320.526 204.884 320.219L206.693 320.545C206.548 321.078 206.288 321.545 205.913 321.945C205.543 322.342 205.076 322.651 204.513 322.872C203.955 323.089 203.318 323.198 202.602 323.198ZM208.935 323V313.182H210.782V314.741H210.885C211.064 314.213 211.379 313.798 211.831 313.495C212.287 313.188 212.802 313.035 213.378 313.035C213.497 313.035 213.638 313.039 213.8 313.048C213.966 313.056 214.096 313.067 214.189 313.08V314.908C214.113 314.886 213.976 314.863 213.78 314.837C213.584 314.808 213.388 314.793 213.192 314.793C212.741 314.793 212.338 314.888 211.984 315.08C211.635 315.268 211.358 315.53 211.153 315.866C210.949 316.199 210.846 316.578 210.846 317.004V323H208.935Z" fill="url(#paint56_linear_20834_21960)"/>
<rect x="40" y="4" width="52.3125" height="30" rx="3" fill="#494E64"/>
<rect x="40.5" y="4.5" width="51.3125" height="29" rx="2.5" stroke="black" stroke-opacity="0.2"/>
<path d="M46.9688 22V14H51.7656V14.8594H47.9375V17.5625H51.4063V18.4219H47.9375V22H46.9688ZM55.0654 22.1406C54.6852 22.1406 54.3402 22.069 54.0303 21.9258C53.7204 21.7799 53.4743 21.5703 53.292 21.2969C53.1097 21.0208 53.0186 20.6875 53.0186 20.2969C53.0186 19.9531 53.0863 19.6745 53.2217 19.4609C53.3571 19.2448 53.5381 19.0755 53.7646 18.9531C53.9912 18.8307 54.2412 18.7396 54.5146 18.6797C54.7907 18.6172 55.068 18.5677 55.3467 18.5313C55.7113 18.4844 56.0068 18.4492 56.2334 18.4258C56.4626 18.3997 56.6292 18.3568 56.7334 18.2969C56.8402 18.237 56.8936 18.1328 56.8936 17.9844V17.9531C56.8936 17.5677 56.7881 17.2682 56.5771 17.0547C56.3688 16.8411 56.0524 16.7344 55.6279 16.7344C55.1878 16.7344 54.8428 16.8307 54.5928 17.0234C54.3428 17.2161 54.167 17.4219 54.0654 17.6406L53.1904 17.3281C53.3467 16.9635 53.555 16.6797 53.8154 16.4766C54.0785 16.2708 54.3649 16.1276 54.6748 16.0469C54.9873 15.9635 55.2946 15.9219 55.5967 15.9219C55.7894 15.9219 56.0107 15.9453 56.2607 15.9922C56.5133 16.0365 56.7568 16.1289 56.9912 16.2695C57.2282 16.4102 57.4248 16.6224 57.5811 16.9062C57.7373 17.1901 57.8154 17.5703 57.8154 18.0469V22H56.8936V21.1875H56.8467C56.7842 21.3177 56.68 21.457 56.5342 21.6055C56.3883 21.7539 56.1943 21.8802 55.9521 21.9844C55.71 22.0885 55.4144 22.1406 55.0654 22.1406ZM55.2061 21.3125C55.5706 21.3125 55.8779 21.2409 56.1279 21.0977C56.3805 20.9544 56.5706 20.7695 56.6982 20.543C56.8285 20.3164 56.8936 20.0781 56.8936 19.8281V18.9844C56.8545 19.0312 56.7686 19.0742 56.6357 19.1133C56.5055 19.1497 56.3545 19.1823 56.1826 19.2109C56.0133 19.237 55.848 19.2604 55.6865 19.2812C55.5277 19.2995 55.3988 19.3151 55.2998 19.3281C55.0602 19.3594 54.8363 19.4102 54.6279 19.4805C54.4222 19.5482 54.2555 19.651 54.1279 19.7891C54.0029 19.9245 53.9404 20.1094 53.9404 20.3437C53.9404 20.6641 54.0589 20.9062 54.2959 21.0703C54.5355 21.2318 54.8389 21.3125 55.2061 21.3125ZM64.1895 16L61.9707 22H61.0332L58.8145 16H59.8145L61.4707 20.7812H61.5332L63.1895 16H64.1895ZM65.4063 22V16H66.3281V22H65.4063ZM65.875 15C65.6953 15 65.5404 14.9388 65.4102 14.8164C65.2826 14.694 65.2188 14.5469 65.2188 14.375C65.2188 14.2031 65.2826 14.056 65.4102 13.9336C65.5404 13.8112 65.6953 13.75 65.875 13.75C66.0547 13.75 66.2083 13.8112 66.3359 13.9336C66.4661 14.056 66.5313 14.2031 66.5313 14.375C66.5313 14.5469 66.4661 14.694 66.3359 14.8164C66.2083 14.9388 66.0547 15 65.875 15ZM70.4541 22.125C69.8916 22.125 69.4072 21.9922 69.001 21.7266C68.5947 21.4609 68.2822 21.0951 68.0635 20.6289C67.8447 20.1628 67.7354 19.6302 67.7354 19.0312C67.7354 18.4219 67.8473 17.8841 68.0713 17.418C68.2979 16.9492 68.613 16.5833 69.0166 16.3203C69.4229 16.0547 69.8968 15.9219 70.4385 15.9219C70.8604 15.9219 71.2406 16 71.5791 16.1562C71.9176 16.3125 72.195 16.5312 72.4111 16.8125C72.6273 17.0937 72.7614 17.4219 72.8135 17.7969H71.8916C71.8213 17.5234 71.665 17.2812 71.4229 17.0703C71.1833 16.8568 70.8604 16.75 70.4541 16.75C70.0947 16.75 69.7796 16.8437 69.5088 17.0312C69.2406 17.2161 69.0309 17.4779 68.8799 17.8164C68.7314 18.1523 68.6572 18.5469 68.6572 19C68.6572 19.4635 68.7301 19.8672 68.876 20.2109C69.0244 20.5547 69.2327 20.8216 69.501 21.0117C69.7718 21.2018 70.0895 21.2969 70.4541 21.2969C70.6937 21.2969 70.9111 21.2552 71.1064 21.1719C71.3018 21.0885 71.4671 20.9688 71.6025 20.8125C71.738 20.6562 71.8343 20.4687 71.8916 20.25H72.8135C72.7614 20.6042 72.6325 20.9232 72.4268 21.207C72.2236 21.4883 71.9541 21.7122 71.6182 21.8789C71.2848 22.043 70.8968 22.125 70.4541 22.125ZM76.5986 22.125C76.057 22.125 75.5817 21.9961 75.1729 21.7383C74.7666 21.4805 74.4489 21.1198 74.2197 20.6562C73.9932 20.1927 73.8799 19.651 73.8799 19.0312C73.8799 18.4062 73.9932 17.8607 74.2197 17.3945C74.4489 16.9284 74.7666 16.5664 75.1729 16.3086C75.5817 16.0508 76.057 15.9219 76.5986 15.9219C77.1403 15.9219 77.6143 16.0508 78.0205 16.3086C78.4294 16.5664 78.7471 16.9284 78.9736 17.3945C79.2028 17.8607 79.3174 18.4062 79.3174 19.0312C79.3174 19.651 79.2028 20.1927 78.9736 20.6562C78.7471 21.1198 78.4294 21.4805 78.0205 21.7383C77.6143 21.9961 77.1403 22.125 76.5986 22.125ZM76.5986 21.2969C77.0101 21.2969 77.3486 21.1914 77.6143 20.9805C77.8799 20.7695 78.0765 20.4922 78.2041 20.1484C78.3317 19.8047 78.3955 19.4323 78.3955 19.0312C78.3955 18.6302 78.3317 18.2565 78.2041 17.9102C78.0765 17.5638 77.8799 17.2839 77.6143 17.0703C77.3486 16.8568 77.0101 16.75 76.5986 16.75C76.1872 16.75 75.8486 16.8568 75.583 17.0703C75.3174 17.2839 75.1208 17.5638 74.9932 17.9102C74.8656 18.2565 74.8018 18.6302 74.8018 19.0312C74.8018 19.4323 74.8656 19.8047 74.9932 20.1484C75.1208 20.4922 75.3174 20.7695 75.583 20.9805C75.8486 21.1914 76.1872 21.2969 76.5986 21.2969ZM81.6465 18.3906V22H80.7246V16H81.6152V16.9375H81.6934C81.834 16.6328 82.0475 16.388 82.334 16.2031C82.6204 16.0156 82.9902 15.9219 83.4434 15.9219C83.8496 15.9219 84.2051 16.0052 84.5098 16.1719C84.8145 16.3359 85.0514 16.5859 85.2207 16.9219C85.39 17.2552 85.4746 17.6771 85.4746 18.1875V22H84.5527V18.25C84.5527 17.7786 84.4303 17.4115 84.1855 17.1484C83.9408 16.8828 83.6048 16.75 83.1777 16.75C82.8835 16.75 82.6204 16.8138 82.3887 16.9414C82.1595 17.069 81.9785 17.2552 81.8457 17.5C81.7129 17.7448 81.6465 18.0417 81.6465 18.3906Z" fill="white"/>
<defs>
<linearGradient id="paint0_linear_20834_21960" x1="153.481" y1="148.592" x2="222.756" y2="158.305" gradientUnits="userSpaceOnUse">
<stop stop-color="#FFBF04"/>
<stop offset="0.5" stop-color="#FFE88A"/>
<stop offset="1" stop-color="#FFBF04"/>
</linearGradient>
<linearGradient id="paint1_linear_20834_21960" x1="116" y1="148.592" x2="187.398" y2="158.922" gradientUnits="userSpaceOnUse">
<stop stop-color="#FFBF04"/>
<stop offset="0.5" stop-color="#FFE88A"/>
<stop offset="1" stop-color="#FFBF04"/>
</linearGradient>
<linearGradient id="paint2_linear_20834_21960" x1="116" y1="173.381" x2="185.883" y2="187.884" gradientUnits="userSpaceOnUse">
<stop stop-color="#FFBF04"/>
<stop offset="0.5" stop-color="#FFE88A"/>
<stop offset="1" stop-color="#FFBF04"/>
</linearGradient>
<linearGradient id="paint3_linear_20834_21960" x1="189.195" y1="148.592" x2="260.593" y2="158.922" gradientUnits="userSpaceOnUse">
<stop stop-color="#FFBF04"/>
<stop offset="0.5" stop-color="#FFE88A"/>
<stop offset="1" stop-color="#FFBF04"/>
</linearGradient>
<linearGradient id="paint4_linear_20834_21960" x1="362.024" y1="145.543" x2="425.526" y2="154.446" gradientUnits="userSpaceOnUse">
<stop stop-color="#FFBF04"/>
<stop offset="0.5" stop-color="#FFE88A"/>
<stop offset="1" stop-color="#FFBF04"/>
</linearGradient>
<linearGradient id="paint5_linear_20834_21960" x1="327.667" y1="145.543" x2="393.115" y2="155.012" gradientUnits="userSpaceOnUse">
<stop stop-color="#FFBF04"/>
<stop offset="0.5" stop-color="#FFE88A"/>
<stop offset="1" stop-color="#FFBF04"/>
</linearGradient>
<linearGradient id="paint6_linear_20834_21960" x1="327.667" y1="168.266" x2="391.726" y2="181.56" gradientUnits="userSpaceOnUse">
<stop stop-color="#FFBF04"/>
<stop offset="0.5" stop-color="#FFE88A"/>
<stop offset="1" stop-color="#FFBF04"/>
</linearGradient>
<linearGradient id="paint7_linear_20834_21960" x1="394.762" y1="145.543" x2="460.21" y2="155.012" gradientUnits="userSpaceOnUse">
<stop stop-color="#FFBF04"/>
<stop offset="0.5" stop-color="#FFE88A"/>
<stop offset="1" stop-color="#FFBF04"/>
</linearGradient>
<linearGradient id="paint8_linear_20834_21960" x1="554.567" y1="138.494" x2="612.297" y2="146.587" gradientUnits="userSpaceOnUse">
<stop stop-color="#FFBF04"/>
<stop offset="0.5" stop-color="#FFE88A"/>
<stop offset="1" stop-color="#FFBF04"/>
</linearGradient>
<linearGradient id="paint9_linear_20834_21960" x1="523.333" y1="138.494" x2="582.831" y2="147.102" gradientUnits="userSpaceOnUse">
<stop stop-color="#FFBF04"/>
<stop offset="0.5" stop-color="#FFE88A"/>
<stop offset="1" stop-color="#FFBF04"/>
</linearGradient>
<linearGradient id="paint10_linear_20834_21960" x1="523.334" y1="159.151" x2="581.569" y2="171.237" gradientUnits="userSpaceOnUse">
<stop stop-color="#FFBF04"/>
<stop offset="0.5" stop-color="#FFE88A"/>
<stop offset="1" stop-color="#FFBF04"/>
</linearGradient>
<linearGradient id="paint11_linear_20834_21960" x1="584.329" y1="138.494" x2="643.828" y2="147.102" gradientUnits="userSpaceOnUse">
<stop stop-color="#FFBF04"/>
<stop offset="0.5" stop-color="#FFE88A"/>
<stop offset="1" stop-color="#FFBF04"/>
</linearGradient>
<linearGradient id="paint12_linear_20834_21960" x1="732.263" y1="136.461" x2="786.144" y2="144.015" gradientUnits="userSpaceOnUse">
<stop stop-color="#FFBF04"/>
<stop offset="0.5" stop-color="#FFE88A"/>
<stop offset="1" stop-color="#FFBF04"/>
</linearGradient>
<linearGradient id="paint13_linear_20834_21960" x1="703.111" y1="136.461" x2="758.643" y2="144.495" gradientUnits="userSpaceOnUse">
<stop stop-color="#FFBF04"/>
<stop offset="0.5" stop-color="#FFE88A"/>
<stop offset="1" stop-color="#FFBF04"/>
</linearGradient>
<linearGradient id="paint14_linear_20834_21960" x1="703.112" y1="155.741" x2="757.465" y2="167.021" gradientUnits="userSpaceOnUse">
<stop stop-color="#FFBF04"/>
<stop offset="0.5" stop-color="#FFE88A"/>
<stop offset="1" stop-color="#FFBF04"/>
</linearGradient>
<linearGradient id="paint15_linear_20834_21960" x1="760.041" y1="136.461" x2="815.572" y2="144.495" gradientUnits="userSpaceOnUse">
<stop stop-color="#FFBF04"/>
<stop offset="0.5" stop-color="#FFE88A"/>
<stop offset="1" stop-color="#FFBF04"/>
</linearGradient>
<linearGradient id="paint16_linear_20834_21960" x1="901.958" y1="134.428" x2="951.99" y2="141.442" gradientUnits="userSpaceOnUse">
<stop stop-color="#FFBF04"/>
<stop offset="0.5" stop-color="#FFE88A"/>
<stop offset="1" stop-color="#FFBF04"/>
</linearGradient>
<linearGradient id="paint17_linear_20834_21960" x1="874.889" y1="134.428" x2="926.454" y2="141.888" gradientUnits="userSpaceOnUse">
<stop stop-color="#FFBF04"/>
<stop offset="0.5" stop-color="#FFE88A"/>
<stop offset="1" stop-color="#FFBF04"/>
</linearGradient>
<linearGradient id="paint18_linear_20834_21960" x1="874.889" y1="152.331" x2="925.36" y2="162.805" gradientUnits="userSpaceOnUse">
<stop stop-color="#FFBF04"/>
<stop offset="0.5" stop-color="#FFE88A"/>
<stop offset="1" stop-color="#FFBF04"/>
</linearGradient>
<linearGradient id="paint19_linear_20834_21960" x1="927.752" y1="134.428" x2="979.317" y2="141.888" gradientUnits="userSpaceOnUse">
<stop stop-color="#FFBF04"/>
<stop offset="0.5" stop-color="#FFE88A"/>
<stop offset="1" stop-color="#FFBF04"/>
</linearGradient>
<linearGradient id="paint20_linear_20834_21960" x1="1057.35" y1="126.362" x2="1099.68" y2="132.297" gradientUnits="userSpaceOnUse">
<stop stop-color="#FFBF04"/>
<stop offset="0.5" stop-color="#FFE88A"/>
<stop offset="1" stop-color="#FFBF04"/>
</linearGradient>
<linearGradient id="paint21_linear_20834_21960" x1="1034.44" y1="126.362" x2="1078.08" y2="132.674" gradientUnits="userSpaceOnUse">
<stop stop-color="#FFBF04"/>
<stop offset="0.5" stop-color="#FFE88A"/>
<stop offset="1" stop-color="#FFBF04"/>
</linearGradient>
<linearGradient id="paint22_linear_20834_21960" x1="1034.44" y1="141.511" x2="1077.15" y2="150.374" gradientUnits="userSpaceOnUse">
<stop stop-color="#FFBF04"/>
<stop offset="0.5" stop-color="#FFE88A"/>
<stop offset="1" stop-color="#FFBF04"/>
</linearGradient>
<linearGradient id="paint23_linear_20834_21960" x1="1079.17" y1="126.362" x2="1122.81" y2="132.674" gradientUnits="userSpaceOnUse">
<stop stop-color="#FFBF04"/>
<stop offset="0.5" stop-color="#FFE88A"/>
<stop offset="1" stop-color="#FFBF04"/>
</linearGradient>
<linearGradient id="paint24_linear_20834_21960" x1="1195.62" y1="124.837" x2="1235.07" y2="130.368" gradientUnits="userSpaceOnUse">
<stop stop-color="#FFBF04"/>
<stop offset="0.5" stop-color="#FFE88A"/>
<stop offset="1" stop-color="#FFBF04"/>
</linearGradient>
<linearGradient id="paint25_linear_20834_21960" x1="1174.28" y1="124.837" x2="1214.93" y2="130.719" gradientUnits="userSpaceOnUse">
<stop stop-color="#FFBF04"/>
<stop offset="0.5" stop-color="#FFE88A"/>
<stop offset="1" stop-color="#FFBF04"/>
</linearGradient>
<linearGradient id="paint26_linear_20834_21960" x1="1174.28" y1="138.953" x2="1214.07" y2="147.212" gradientUnits="userSpaceOnUse">
<stop stop-color="#FFBF04"/>
<stop offset="0.5" stop-color="#FFE88A"/>
<stop offset="1" stop-color="#FFBF04"/>
</linearGradient>
<linearGradient id="paint27_linear_20834_21960" x1="1215.96" y1="124.837" x2="1256.62" y2="130.719" gradientUnits="userSpaceOnUse">
<stop stop-color="#FFBF04"/>
<stop offset="0.5" stop-color="#FFE88A"/>
<stop offset="1" stop-color="#FFBF04"/>
</linearGradient>
<linearGradient id="paint28_linear_20834_21960" x1="1322.74" y1="118.296" x2="1357.38" y2="123.152" gradientUnits="userSpaceOnUse">
<stop stop-color="#FFBF04"/>
<stop offset="0.5" stop-color="#FFE88A"/>
<stop offset="1" stop-color="#FFBF04"/>
</linearGradient>
<linearGradient id="paint29_linear_20834_21960" x1="1304" y1="118.296" x2="1339.7" y2="123.461" gradientUnits="userSpaceOnUse">
<stop stop-color="#FFBF04"/>
<stop offset="0.5" stop-color="#FFE88A"/>
<stop offset="1" stop-color="#FFBF04"/>
</linearGradient>
<linearGradient id="paint30_linear_20834_21960" x1="1304" y1="130.691" x2="1338.94" y2="137.942" gradientUnits="userSpaceOnUse">
<stop stop-color="#FFBF04"/>
<stop offset="0.5" stop-color="#FFE88A"/>
<stop offset="1" stop-color="#FFBF04"/>
</linearGradient>
<linearGradient id="paint31_linear_20834_21960" x1="1340.6" y1="118.296" x2="1376.3" y2="123.461" gradientUnits="userSpaceOnUse">
<stop stop-color="#FFBF04"/>
<stop offset="0.5" stop-color="#FFE88A"/>
<stop offset="1" stop-color="#FFBF04"/>
</linearGradient>
<linearGradient id="paint32_linear_20834_21960" x1="1431.28" y1="111.247" x2="1460.15" y2="115.294" gradientUnits="userSpaceOnUse">
<stop stop-color="#FFBF04"/>
<stop offset="0.5" stop-color="#FFE88A"/>
<stop offset="1" stop-color="#FFBF04"/>
</linearGradient>
<linearGradient id="paint33_linear_20834_21960" x1="1415.67" y1="111.247" x2="1445.42" y2="115.551" gradientUnits="userSpaceOnUse">
<stop stop-color="#FFBF04"/>
<stop offset="0.5" stop-color="#FFE88A"/>
<stop offset="1" stop-color="#FFBF04"/>
</linearGradient>
<linearGradient id="paint34_linear_20834_21960" x1="1415.67" y1="121.576" x2="1444.78" y2="127.618" gradientUnits="userSpaceOnUse">
<stop stop-color="#FFBF04"/>
<stop offset="0.5" stop-color="#FFE88A"/>
<stop offset="1" stop-color="#FFBF04"/>
</linearGradient>
<linearGradient id="paint35_linear_20834_21960" x1="1446.16" y1="111.247" x2="1475.91" y2="115.551" gradientUnits="userSpaceOnUse">
<stop stop-color="#FFBF04"/>
<stop offset="0.5" stop-color="#FFE88A"/>
<stop offset="1" stop-color="#FFBF04"/>
</linearGradient>
<linearGradient id="paint36_linear_20834_21960" x1="1526.13" y1="110.23" x2="1553.07" y2="114.007" gradientUnits="userSpaceOnUse">
<stop stop-color="#FFBF04"/>
<stop offset="0.5" stop-color="#FFE88A"/>
<stop offset="1" stop-color="#FFBF04"/>
</linearGradient>
<linearGradient id="paint37_linear_20834_21960" x1="1511.56" y1="110.23" x2="1539.32" y2="114.247" gradientUnits="userSpaceOnUse">
<stop stop-color="#FFBF04"/>
<stop offset="0.5" stop-color="#FFE88A"/>
<stop offset="1" stop-color="#FFBF04"/>
</linearGradient>
<linearGradient id="paint38_linear_20834_21960" x1="1511.56" y1="119.871" x2="1538.73" y2="125.51" gradientUnits="userSpaceOnUse">
<stop stop-color="#FFBF04"/>
<stop offset="0.5" stop-color="#FFE88A"/>
<stop offset="1" stop-color="#FFBF04"/>
</linearGradient>
<linearGradient id="paint39_linear_20834_21960" x1="1540.02" y1="110.23" x2="1567.79" y2="114.247" gradientUnits="userSpaceOnUse">
<stop stop-color="#FFBF04"/>
<stop offset="0.5" stop-color="#FFE88A"/>
<stop offset="1" stop-color="#FFBF04"/>
</linearGradient>
<linearGradient id="paint40_linear_20834_21960" x1="1613.83" y1="106.198" x2="1636.92" y2="109.435" gradientUnits="userSpaceOnUse">
<stop stop-color="#FFBF04"/>
<stop offset="0.5" stop-color="#FFE88A"/>
<stop offset="1" stop-color="#FFBF04"/>
</linearGradient>
<linearGradient id="paint41_linear_20834_21960" x1="1601.33" y1="106.197" x2="1625.13" y2="109.641" gradientUnits="userSpaceOnUse">
<stop stop-color="#FFBF04"/>
<stop offset="0.5" stop-color="#FFE88A"/>
<stop offset="1" stop-color="#FFBF04"/>
</linearGradient>
<linearGradient id="paint42_linear_20834_21960" x1="1601.33" y1="114.46" x2="1624.63" y2="119.295" gradientUnits="userSpaceOnUse">
<stop stop-color="#FFBF04"/>
<stop offset="0.5" stop-color="#FFE88A"/>
<stop offset="1" stop-color="#FFBF04"/>
</linearGradient>
<linearGradient id="paint43_linear_20834_21960" x1="1625.73" y1="106.198" x2="1649.53" y2="109.641" gradientUnits="userSpaceOnUse">
<stop stop-color="#FFBF04"/>
<stop offset="0.5" stop-color="#FFE88A"/>
<stop offset="1" stop-color="#FFBF04"/>
</linearGradient>
<linearGradient id="paint44_linear_20834_21960" x1="1692.96" y1="105.435" x2="1714.61" y2="108.47" gradientUnits="userSpaceOnUse">
<stop stop-color="#FFBF04"/>
<stop offset="0.5" stop-color="#FFE88A"/>
<stop offset="1" stop-color="#FFBF04"/>
</linearGradient>
<linearGradient id="paint45_linear_20834_21960" x1="1681.25" y1="105.435" x2="1703.56" y2="108.663" gradientUnits="userSpaceOnUse">
<stop stop-color="#FFBF04"/>
<stop offset="0.5" stop-color="#FFE88A"/>
<stop offset="1" stop-color="#FFBF04"/>
</linearGradient>
<linearGradient id="paint46_linear_20834_21960" x1="1681.25" y1="113.182" x2="1703.09" y2="117.714" gradientUnits="userSpaceOnUse">
<stop stop-color="#FFBF04"/>
<stop offset="0.5" stop-color="#FFE88A"/>
<stop offset="1" stop-color="#FFBF04"/>
</linearGradient>
<linearGradient id="paint47_linear_20834_21960" x1="1704.12" y1="105.435" x2="1726.44" y2="108.663" gradientUnits="userSpaceOnUse">
<stop stop-color="#FFBF04"/>
<stop offset="0.5" stop-color="#FFE88A"/>
<stop offset="1" stop-color="#FFBF04"/>
</linearGradient>
<linearGradient id="paint48_linear_20834_21960" x1="1761.91" y1="98.0988" x2="1773.46" y2="99.7175" gradientUnits="userSpaceOnUse">
<stop stop-color="#FFBF04"/>
<stop offset="0.5" stop-color="#FFE88A"/>
<stop offset="1" stop-color="#FFBF04"/>
</linearGradient>
<linearGradient id="paint49_linear_20834_21960" x1="1755.67" y1="98.0987" x2="1767.57" y2="99.8203" gradientUnits="userSpaceOnUse">
<stop stop-color="#FFBF04"/>
<stop offset="0.5" stop-color="#FFE88A"/>
<stop offset="1" stop-color="#FFBF04"/>
</linearGradient>
<linearGradient id="paint50_linear_20834_21960" x1="1755.67" y1="102.23" x2="1767.31" y2="104.647" gradientUnits="userSpaceOnUse">
<stop stop-color="#FFBF04"/>
<stop offset="0.5" stop-color="#FFE88A"/>
<stop offset="1" stop-color="#FFBF04"/>
</linearGradient>
<linearGradient id="paint51_linear_20834_21960" x1="1767.87" y1="98.0988" x2="1779.77" y2="99.8204" gradientUnits="userSpaceOnUse">
<stop stop-color="#FFBF04"/>
<stop offset="0.5" stop-color="#FFE88A"/>
<stop offset="1" stop-color="#FFBF04"/>
</linearGradient>
<linearGradient id="paint52_linear_20834_21960" x1="1808.46" y1="93.0494" x2="1814.23" y2="93.8588" gradientUnits="userSpaceOnUse">
<stop stop-color="#FFBF04"/>
<stop offset="0.5" stop-color="#FFE88A"/>
<stop offset="1" stop-color="#FFBF04"/>
</linearGradient>
<linearGradient id="paint53_linear_20834_21960" x1="1805.33" y1="93.0494" x2="1811.28" y2="93.9102" gradientUnits="userSpaceOnUse">
<stop stop-color="#FFBF04"/>
<stop offset="0.5" stop-color="#FFE88A"/>
<stop offset="1" stop-color="#FFBF04"/>
</linearGradient>
<linearGradient id="paint54_linear_20834_21960" x1="1805.33" y1="95.1151" x2="1811.16" y2="96.3237" gradientUnits="userSpaceOnUse">
<stop stop-color="#FFBF04"/>
<stop offset="0.5" stop-color="#FFE88A"/>
<stop offset="1" stop-color="#FFBF04"/>
</linearGradient>
<linearGradient id="paint55_linear_20834_21960" x1="1811.43" y1="93.0494" x2="1817.38" y2="93.9102" gradientUnits="userSpaceOnUse">
<stop stop-color="#FFBF04"/>
<stop offset="0.5" stop-color="#FFE88A"/>
<stop offset="1" stop-color="#FFBF04"/>
</linearGradient>
<linearGradient id="paint56_linear_20834_21960" x1="154" y1="306.75" x2="208.538" y2="336.053" gradientUnits="userSpaceOnUse">
<stop stop-color="#FFBF04"/>
<stop offset="0.5" stop-color="#FFE88A"/>
<stop offset="1" stop-color="#FFBF04"/>
</linearGradient>
<clipPath id="clip0_20834_21960">
<rect width="136.462" height="92.442" fill="white" transform="translate(116 138)"/>
</clipPath>
<clipPath id="clip1_20834_21960">
<rect width="125.09" height="84.7385" fill="white" transform="translate(327.667 135.833)"/>
</clipPath>
<clipPath id="clip2_20834_21960">
<rect width="113.718" height="77.035" fill="white" transform="translate(523.333 129.667)"/>
</clipPath>
<clipPath id="clip3_20834_21960">
<rect width="106.137" height="71.8993" fill="white" transform="translate(703.111 128.222)"/>
</clipPath>
<clipPath id="clip4_20834_21960">
<rect width="98.5558" height="66.7636" fill="white" transform="translate(874.889 126.778)"/>
</clipPath>
<clipPath id="clip5_20834_21960">
<rect width="83.3934" height="56.4923" fill="white" transform="translate(1034.44 119.889)"/>
</clipPath>
<clipPath id="clip6_20834_21960">
<rect width="77.7075" height="52.6406" fill="white" transform="translate(1174.28 118.806)"/>
</clipPath>
<clipPath id="clip7_20834_21960">
<rect width="68.231" height="46.221" fill="white" transform="translate(1304 113)"/>
</clipPath>
<clipPath id="clip8_20834_21960">
<rect width="56.8591" height="38.5175" fill="white" transform="translate(1415.67 106.833)"/>
</clipPath>
<clipPath id="clip9_20834_21960">
<rect width="53.0685" height="35.9496" fill="white" transform="translate(1511.56 106.111)"/>
</clipPath>
<clipPath id="clip10_20834_21960">
<rect width="45.4873" height="30.814" fill="white" transform="translate(1601.33 102.667)"/>
</clipPath>
<clipPath id="clip11_20834_21960">
<rect width="42.6444" height="28.8881" fill="white" transform="translate(1681.25 102.125)"/>
</clipPath>
<clipPath id="clip12_20834_21960">
<rect width="22.7437" height="15.407" fill="white" transform="translate(1755.67 96.3333)"/>
</clipPath>
<clipPath id="clip13_20834_21960">
<rect width="11.3718" height="7.7035" fill="white" transform="translate(1805.33 92.1667)"/>
</clipPath>
</defs>
</svg>
